<svg viewBox="0 0 1800 1350" xmlns="http://www.w3.org/2000/svg">
  <defs>
    <filter id="shadow">
      <feGaussianBlur in="SourceAlpha" stdDeviation="2"/>
      <feOffset dx="0" dy="2" result="offsetblur"/>
      <feComponentTransfer>
        <feFuncA type="linear" slope="0.2"/>
      </feComponentTransfer>
      <feMerge>
        <feMergeNode/>
        <feMergeNode in="SourceGraphic"/>
      </feMerge>
    </filter>
  </defs>
  
  <!-- Background -->
  <rect width="1800" height="1350" fill="#ffffff"/>
  
  <!-- Title -->
  <text x="900" y="50" font-family="Arial, sans-serif" font-size="28" font-weight="bold" fill="#1a1a1a" text-anchor="middle">Evently Platform Use Case Diagram</text>
  
  <!-- System Boundary -->
  <rect x="350" y="120" width="1100" height="1150" rx="8" fill="none" stroke="#333333" stroke-width="2"/>
  <text x="900" y="110" font-family="Arial, sans-serif" font-size="14" font-weight="bold" fill="#333333" text-anchor="middle">Evently System</text>
  
  <!-- Actor: Student -->
  <g>
    <circle cx="150" cy="250" r="25" fill="none" stroke="#333333" stroke-width="2"/>
    <line x1="150" y1="275" x2="150" y2="325" stroke="#333333" stroke-width="2"/>
    <line x1="150" y1="295" x2="120" y2="310" stroke="#333333" stroke-width="2"/>
    <line x1="150" y1="295" x2="180" y2="310" stroke="#333333" stroke-width="2"/>
    <line x1="150" y1="325" x2="125" y2="360" stroke="#333333" stroke-width="2"/>
    <line x1="150" y1="325" x2="175" y2="360" stroke="#333333" stroke-width="2"/>
    <text x="150" y="385" font-family="Arial, sans-serif" font-size="14" font-weight="bold" fill="#333333" text-anchor="middle">Student</text>
  </g>
  
  <!-- Actor: Organizer -->
  <g>
    <circle cx="150" cy="580" r="25" fill="none" stroke="#333333" stroke-width="2"/>
    <line x1="150" y1="605" x2="150" y2="655" stroke="#333333" stroke-width="2"/>
    <line x1="150" y1="625" x2="120" y2="640" stroke="#333333" stroke-width="2"/>
    <line x1="150" y1="625" x2="180" y2="640" stroke="#333333" stroke-width="2"/>
    <line x1="150" y1="655" x2="125" y2="690" stroke="#333333" stroke-width="2"/>
    <line x1="150" y1="655" x2="175" y2="690" stroke="#333333" stroke-width="2"/>
    <text x="150" y="715" font-family="Arial, sans-serif" font-size="14" font-weight="bold" fill="#333333" text-anchor="middle">Organizer</text>
  </g>
  
  <!-- Actor: Administrator -->
  <g>
    <circle cx="150" cy="950" r="25" fill="none" stroke="#333333" stroke-width="2"/>
    <line x1="150" y1="975" x2="150" y2="1025" stroke="#333333" stroke-width="2"/>
    <line x1="150" y1="995" x2="120" y2="1010" stroke="#333333" stroke-width="2"/>
    <line x1="150" y1="995" x2="180" y2="1010" stroke="#333333" stroke-width="2"/>
    <line x1="150" y1="1025" x2="125" y2="1060" stroke="#333333" stroke-width="2"/>
    <line x1="150" y1="1025" x2="175" y2="1060" stroke="#333333" stroke-width="2"/>
    <text x="150" y="1085" font-family="Arial, sans-serif" font-size="14" font-weight="bold" fill="#333333" text-anchor="middle">Administrator</text>
  </g>
  
  <!-- Epic 1: Student Event Experience -->
  <text x="550" y="170" font-family="Arial, sans-serif" font-size="13" font-weight="bold" fill="#1e40af" text-anchor="start">Epic 1: Student Event Experience</text>
  
  <ellipse cx="620" cy="220" rx="100" ry="30" fill="#dbeafe" stroke="#1e40af" stroke-width="1.5" filter="url(#shadow)"/>
  <text x="620" y="226" font-family="Arial, sans-serif" font-size="11" fill="#1e40af" text-anchor="middle">Browse Events</text>
  
  <ellipse cx="620" cy="300" rx="100" ry="30" fill="#dbeafe" stroke="#1e40af" stroke-width="1.5" filter="url(#shadow)"/>
  <text x="620" y="303" font-family="Arial, sans-serif" font-size="11" fill="#1e40af" text-anchor="middle">Search Events</text>
  <text x="620" y="314" font-family="Arial, sans-serif" font-size="11" fill="#1e40af" text-anchor="middle">with Filters</text>

  <!-- Search Users (new, aligned) -->
  <ellipse cx="620" cy="300" rx="100" ry="30" fill="#dbeafe" stroke="#1e40af" stroke-width="1.5" filter="url(#shadow)"/>
  <text x="620" y="303" font-family="Arial, sans-serif" font-size="11" fill="#1e40af" text-anchor="middle">Search Users</text>
  
  <ellipse cx="620" cy="380" rx="100" ry="30" fill="#dbeafe" stroke="#1e40af" stroke-width="1.5" filter="url(#shadow)"/>
  <text x="620" y="383" font-family="Arial, sans-serif" font-size="11" fill="#1e40af" text-anchor="middle">Save Events</text>
  <text x="620" y="394" font-family="Arial, sans-serif" font-size="11" fill="#1e40af" text-anchor="middle">to Calendar</text>
  
  <ellipse cx="620" cy="460" rx="100" ry="30" fill="#dbeafe" stroke="#1e40af" stroke-width="1.5" filter="url(#shadow)"/>
  <text x="620" y="467" font-family="Arial, sans-serif" font-size="11" fill="#1e40af" text-anchor="middle">Claim Tickets</text>
  
  <ellipse cx="620" cy="540" rx="100" ry="30" fill="#dbeafe" stroke="#1e40af" stroke-width="1.5" filter="url(#shadow)"/>
  <text x="620" y="543" font-family="Arial, sans-serif" font-size="11" fill="#1e40af" text-anchor="middle">Receive Digital</text>
  <text x="620" y="554" font-family="Arial, sans-serif" font-size="11" fill="#1e40af" text-anchor="middle">Ticket with QR</text>
  
  <!-- Epic 2: Organizer Event Management -->
  <text x="950" y="170" font-family="Arial, sans-serif" font-size="13" font-weight="bold" fill="#c2410c" text-anchor="start">Epic 2: Organizer Event Management</text>
  
  <ellipse cx="1100" cy="220" rx="100" ry="30" fill="#fed7aa" stroke="#c2410c" stroke-width="1.5" filter="url(#shadow)"/>
  <text x="1100" y="226" font-family="Arial, sans-serif" font-size="11" fill="#c2410c" text-anchor="middle">Create Event</text>
  
  <ellipse cx="1100" cy="300" rx="100" ry="30" fill="#fed7aa" stroke="#c2410c" stroke-width="1.5" filter="url(#shadow)"/>
  <text x="1100" y="303" font-family="Arial, sans-serif" font-size="11" fill="#c2410c" text-anchor="middle">Enter Event</text>
  <text x="1100" y="314" font-family="Arial, sans-serif" font-size="11" fill="#c2410c" text-anchor="middle">Details</text>
  
  <ellipse cx="1100" cy="380" rx="100" ry="30" fill="#fed7aa" stroke="#c2410c" stroke-width="1.5" filter="url(#shadow)"/>
  <text x="1100" y="383" font-family="Arial, sans-serif" font-size="11" fill="#c2410c" text-anchor="middle">View Event</text>
  <text x="1100" y="394" font-family="Arial, sans-serif" font-size="11" fill="#c2410c" text-anchor="middle">Dashboard</text>
  
  <ellipse cx="1100" cy="460" rx="100" ry="30" fill="#fed7aa" stroke="#c2410c" stroke-width="1.5" filter="url(#shadow)"/>
  <text x="1100" y="463" font-family="Arial, sans-serif" font-size="11" fill="#c2410c" text-anchor="middle">View Event</text>
  <text x="1100" y="474" font-family="Arial, sans-serif" font-size="11" fill="#c2410c" text-anchor="middle">Analytics</text>
  
  <ellipse cx="1100" cy="540" rx="100" ry="30" fill="#fed7aa" stroke="#c2410c" stroke-width="1.5" filter="url(#shadow)"/>
  <text x="1100" y="543" font-family="Arial, sans-serif" font-size="11" fill="#c2410c" text-anchor="middle">Export Attendee</text>
  <text x="1100" y="554" font-family="Arial, sans-serif" font-size="11" fill="#c2410c" text-anchor="middle">List (CSV)</text>
  
  <ellipse cx="1100" cy="620" rx="100" ry="30" fill="#fed7aa" stroke="#c2410c" stroke-width="1.5" filter="url(#shadow)"/>
  <text x="1100" y="623" font-family="Arial, sans-serif" font-size="11" fill="#c2410c" text-anchor="middle">Scan QR Codes</text>
  <text x="1100" y="634" font-family="Arial, sans-serif" font-size="11" fill="#c2410c" text-anchor="middle">for Validation</text>
  
  <!-- Epic 3: Administrator Dashboard & Moderation -->
  <text x="950" y="690" font-family="Arial, sans-serif" font-size="13" font-weight="bold" fill="#991b1b" text-anchor="start">Epic 3: Administrator Dashboard & Moderation</text>
  
  <ellipse cx="1100" cy="730" rx="100" ry="30" fill="#fecaca" stroke="#991b1b" stroke-width="1.5" filter="url(#shadow)"/>
  <text x="1100" y="733" font-family="Arial, sans-serif" font-size="11" fill="#991b1b" text-anchor="middle">Approve Organizer</text>
  <text x="1100" y="744" font-family="Arial, sans-serif" font-size="11" fill="#991b1b" text-anchor="middle">Accounts</text>
  
  <ellipse cx="1100" cy="810" rx="100" ry="30" fill="#fecaca" stroke="#991b1b" stroke-width="1.5" filter="url(#shadow)"/>
  <text x="1100" y="813" font-family="Arial, sans-serif" font-size="11" fill="#991b1b" text-anchor="middle">Moderate Event</text>
  <text x="1100" y="824" font-family="Arial, sans-serif" font-size="11" fill="#991b1b" text-anchor="middle">Listings</text>
  
  <ellipse cx="1100" cy="890" rx="100" ry="30" fill="#fecaca" stroke="#991b1b" stroke-width="1.5" filter="url(#shadow)"/>
  <text x="1100" y="893" font-family="Arial, sans-serif" font-size="11" fill="#991b1b" text-anchor="middle">View Global</text>
  <text x="1100" y="904" font-family="Arial, sans-serif" font-size="11" fill="#991b1b" text-anchor="middle">Platform Stats</text>
  
  <ellipse cx="1100" cy="970" rx="100" ry="30" fill="#fecaca" stroke="#991b1b" stroke-width="1.5" filter="url(#shadow)"/>
  <text x="1100" y="973" font-family="Arial, sans-serif" font-size="11" fill="#991b1b" text-anchor="middle">Manage</text>
  <text x="1100" y="984" font-family="Arial, sans-serif" font-size="11" fill="#991b1b" text-anchor="middle">Organizations</text>
  
  <ellipse cx="1100" cy="1050" rx="100" ry="30" fill="#fecaca" stroke="#991b1b" stroke-width="1.5" filter="url(#shadow)"/>
  <text x="1100" y="1057" font-family="Arial, sans-serif" font-size="11" fill="#991b1b" text-anchor="middle">Assign User Roles</text>
  
  <!-- Epic 4: User Profiles & Following -->
  <text x="550" y="630" font-family="Arial, sans-serif" font-size="13" font-weight="bold" fill="#065f46" text-anchor="start">Epic 4: User Profiles & Following</text>
  
  <ellipse cx="620" cy="670" rx="100" ry="30" fill="#d1fae5" stroke="#065f46" stroke-width="1.5" filter="url(#shadow)"/>
  <text x="620" y="677" font-family="Arial, sans-serif" font-size="11" fill="#065f46" text-anchor="middle">View User Profiles</text>

  <!-- View Private Profile (locked, aligned) -->
  <ellipse cx="620" cy="670" rx="120" ry="30" fill="#d1fae5" stroke="#065f46" stroke-width="1.5" filter="url(#shadow)"/>
  <text x="620" y="677" font-family="Arial, sans-serif" font-size="11" fill="#065f46" text-anchor="middle">View Private Profile</text>
  <text x="620" y="688" font-family="Arial, sans-serif" font-size="11" fill="#065f46" text-anchor="middle">(shows locked message)</text>
  
  <ellipse cx="620" cy="750" rx="100" ry="30" fill="#d1fae5" stroke="#065f46" stroke-width="1.5" filter="url(#shadow)"/>
  <text x="620" y="757" font-family="Arial, sans-serif" font-size="11" fill="#065f46" text-anchor="middle">Edit Own Profile</text>
  
  <ellipse cx="620" cy="830" rx="100" ry="30" fill="#d1fae5" stroke="#065f46" stroke-width="1.5" filter="url(#shadow)"/>
  <text x="620" y="833" font-family="Arial, sans-serif" font-size="11" fill="#065f46" text-anchor="middle">Follow Users/</text>
  <text x="620" y="844" font-family="Arial, sans-serif" font-size="11" fill="#065f46" text-anchor="middle">Organizers</text>
  
  <ellipse cx="620" cy="910" rx="100" ry="30" fill="#d1fae5" stroke="#065f46" stroke-width="1.5" filter="url(#shadow)"/>
  <text x="620" y="917" font-family="Arial, sans-serif" font-size="11" fill="#065f46" text-anchor="middle">Follow Categories</text>
  
  <ellipse cx="620" cy="990" rx="100" ry="30" fill="#d1fae5" stroke="#065f46" stroke-width="1.5" filter="url(#shadow)"/>
  <text x="620" y="993" font-family="Arial, sans-serif" font-size="11" fill="#065f46" text-anchor="middle">View Personalized</text>
  <text x="620" y="1004" font-family="Arial, sans-serif" font-size="11" fill="#065f46" text-anchor="middle">Feed</text>
  
  <ellipse cx="620" cy="1070" rx="100" ry="30" fill="#d1fae5" stroke="#065f46" stroke-width="1.5" filter="url(#shadow)"/>
  <text x="620" y="1073" font-family="Arial, sans-serif" font-size="11" fill="#065f46" text-anchor="middle">Receive Broadcast</text>
  <text x="620" y="1084" font-family="Arial, sans-serif" font-size="11" fill="#065f46" text-anchor="middle">Messages</text>
  
  <ellipse cx="620" cy="1150" rx="100" ry="30" fill="#d1fae5" stroke="#065f46" stroke-width="1.5" filter="url(#shadow)"/>
  <text x="620" y="1153" font-family="Arial, sans-serif" font-size="11" fill="#065f46" text-anchor="middle">Send Broadcast</text>
  <text x="620" y="1164" font-family="Arial, sans-serif" font-size="11" fill="#065f46" text-anchor="middle">Messages</text>
  
  <!-- Connections: Student -->
  <line x1="175" y1="250" x2="520" y2="220" stroke="#666666" stroke-width="1" opacity="0.6"/>
  <line x1="175" y1="260" x2="520" y2="300" stroke="#666666" stroke-width="1" opacity="0.6"/>
  <line x1="175" y1="270" x2="520" y2="380" stroke="#666666" stroke-width="1" opacity="0.6"/>
  <line x1="175" y1="280" x2="520" y2="460" stroke="#666666" stroke-width="1" opacity="0.6"/>
  <line x1="175" y1="290" x2="520" y2="540" stroke="#666666" stroke-width="1" opacity="0.6"/>
  <line x1="175" y1="320" x2="520" y2="670" stroke="#666666" stroke-width="1" opacity="0.6"/>
  <line x1="175" y1="330" x2="520" y2="750" stroke="#666666" stroke-width="1" opacity="0.6"/>
  <!-- Student -> Search Users -->
  <line x1="175" y1="250" x2="620" y2="300" stroke="#666666" stroke-width="1" opacity="0.6"/>
  <!-- Student -> View Private Profile -->
  <line x1="175" y1="250" x2="620" y2="670" stroke="#666666" stroke-width="1" opacity="0.6"/>
  <line x1="175" y1="340" x2="520" y2="830" stroke="#666666" stroke-width="1" opacity="0.6"/>
  <line x1="175" y1="350" x2="520" y2="910" stroke="#666666" stroke-width="1" opacity="0.6"/>
  <line x1="175" y1="360" x2="520" y2="990" stroke="#666666" stroke-width="1" opacity="0.6"/>
  <line x1="175" y1="370" x2="520" y2="1070" stroke="#666666" stroke-width="1" opacity="0.6"/>
  
  <!-- Connections: Organizer -->
  <line x1="175" y1="580" x2="520" y2="220" stroke="#666666" stroke-width="1" opacity="0.6"/>
  <line x1="180" y1="580" x2="1000" y2="220" stroke="#666666" stroke-width="1" opacity="0.6"/>
  <line x1="185" y1="585" x2="1000" y2="300" stroke="#666666" stroke-width="1" opacity="0.6"/>
  <line x1="190" y1="590" x2="1000" y2="380" stroke="#666666" stroke-width="1" opacity="0.6"/>
  <line x1="195" y1="595" x2="1000" y2="460" stroke="#666666" stroke-width="1" opacity="0.6"/>
  <line x1="200" y1="600" x2="1000" y2="540" stroke="#666666" stroke-width="1" opacity="0.6"/>
  <line x1="205" y1="605" x2="1000" y2="620" stroke="#666666" stroke-width="1" opacity="0.6"/>
  <line x1="175" y1="610" x2="520" y2="670" stroke="#666666" stroke-width="1" opacity="0.6"/>
  <line x1="175" y1="620" x2="520" y2="750" stroke="#666666" stroke-width="1" opacity="0.6"/>
  <!-- Organizer -> Search Users -->
  <line x1="180" y1="580" x2="620" y2="300" stroke="#666666" stroke-width="1" opacity="0.6"/>
  <!-- Organizer -> View Private Profile -->
  <line x1="180" y1="580" x2="620" y2="670" stroke="#666666" stroke-width="1" opacity="0.6"/>
  <line x1="175" y1="630" x2="520" y2="830" stroke="#666666" stroke-width="1" opacity="0.6"/>
  <line x1="175" y1="640" x2="520" y2="910" stroke="#666666" stroke-width="1" opacity="0.6"/>
  <line x1="175" y1="650" x2="520" y2="990" stroke="#666666" stroke-width="1" opacity="0.6"/>
  <line x1="175" y1="660" x2="520" y2="1070" stroke="#666666" stroke-width="1" opacity="0.6"/>
  <line x1="180" y1="665" x2="520" y2="1150" stroke="#666666" stroke-width="1" opacity="0.6"/>
  
  <!-- Connections: Administrator -->
  <line x1="175" y1="950" x2="520" y2="220" stroke="#666666" stroke-width="1" opacity="0.6"/>
  <line x1="180" y1="950" x2="1000" y2="730" stroke="#666666" stroke-width="1" opacity="0.6"/>
  <line x1="185" y1="955" x2="1000" y2="810" stroke="#666666" stroke-width="1" opacity="0.6"/>
  <line x1="190" y1="960" x2="1000" y2="890" stroke="#666666" stroke-width="1" opacity="0.6"/>
  <line x1="195" y1="965" x2="1000" y2="970" stroke="#666666" stroke-width="1" opacity="0.6"/>
  <line x1="200" y1="970" x2="1000" y2="1050" stroke="#666666" stroke-width="1" opacity="0.6"/>
  <line x1="175" y1="1000" x2="520" y2="670" stroke="#666666" stroke-width="1" opacity="0.6"/>
  <line x1="180" y1="1005" x2="520" y2="1150" stroke="#666666" stroke-width="1" opacity="0.6"/>
  <!-- Administrator -> Search Users -->
  <line x1="175" y1="950" x2="620" y2="300" stroke="#666666" stroke-width="1" opacity="0.6"/>
  <!-- Administrator -> View Private Profile -->
  <line x1="175" y1="950" x2="620" y2="670" stroke="#666666" stroke-width="1" opacity="0.6"/>
  
  <!-- Include and Extend Relationships -->
  <defs>
    <!-- Solid arrowhead for «include» relationships -->
    <marker id="arrowInclude" markerWidth="10" markerHeight="10" refX="9" refY="3" orient="auto" markerUnits="strokeWidth">
      <path d="M0,0 L0,6 L9,3 z" fill="#333333"/>
    </marker>
    <!-- Open arrowhead for «extend» relationships -->
    <marker id="arrowExtend" markerWidth="10" markerHeight="10" refX="9" refY="3" orient="auto" markerUnits="strokeWidth">
      <path d="M0,0 L0,6 L9,3 z" fill="none" stroke="#333333" stroke-width="1.5"/>
    </marker>
  </defs>
  
  <!-- «extend» Search Events with Filters -> Browse Events -->
  <path d="M 620 270 Q 680 255, 680 240 Q 680 225, 670 225" stroke="#333333" stroke-width="1.5" stroke-dasharray="8,4" fill="none" marker-end="url(#arrowExtend)"/>
  <text x="730" y="250" font-family="Arial, sans-serif" font-size="10" font-style="italic" fill="#333333">«extend»</text>
  
  <!-- «include» Claim Tickets -> Receive Digital Ticket with QR -->
  <path d="M 620 490 L 620 510" stroke="#333333" stroke-width="1.5" stroke-dasharray="4,2" fill="none" marker-end="url(#arrowInclude)"/>
  <text x="730" y="505" font-family="Arial, sans-serif" font-size="10" font-style="italic" fill="#333333">«include»</text>
  
  <!-- «include» Create Event -> Enter Event Details -->
  <path d="M 1100 250 L 1100 270" stroke="#333333" stroke-width="1.5" stroke-dasharray="4,2" fill="none" marker-end="url(#arrowInclude)"/>
  <text x="1210" y="265" font-family="Arial, sans-serif" font-size="10" font-style="italic" fill="#333333">«include»</text>
  
  <!-- «include» View Event Dashboard -> View Event Analytics -->
  <path d="M 1100 410 L 1100 430" stroke="#333333" stroke-width="1.5" stroke-dasharray="4,2" fill="none" marker-end="url(#arrowInclude)"/>
  <text x="1210" y="425" font-family="Arial, sans-serif" font-size="10" font-style="italic" fill="#333333">«include»</text>
  
  <!-- «extend» Export Attendee List (CSV) -> View Event Dashboard -->
  <path d="M 1050 525 Q 1020 465, 1030 415 Q 1035 395, 1050 395" stroke="#333333" stroke-width="1.5" stroke-dasharray="8,4" fill="none" marker-end="url(#arrowExtend)"/>
  <text x="985" y="465" font-family="Arial, sans-serif" font-size="10" font-style="italic" fill="#333333">«extend»</text>
  
  <!-- «extend» Scan QR Codes for Validation -> View Event Dashboard -->
  <path d="M 1150 605 Q 1180 500, 1170 415 Q 1165 395, 1150 395" stroke="#333333" stroke-width="1.5" stroke-dasharray="8,4" fill="none" marker-end="url(#arrowExtend)"/>
  <text x="1185" y="505" font-family="Arial, sans-serif" font-size="10" font-style="italic" fill="#333333">«extend»</text>
  
  <!-- «include» View Personalized Feed -> Follow Users/Organizers -->
  <path d="M 620 960 L 620 860" stroke="#333333" stroke-width="1.5" stroke-dasharray="4,2" fill="none" marker-end="url(#arrowInclude)"/>
  <text x="730" y="915" font-family="Arial, sans-serif" font-size="10" font-style="italic" fill="#333333">«include»</text>
  
  <!-- «include» View Personalized Feed -> Follow Categories -->
  <path d="M 585 975 Q 560 958, 560 938 Q 560 925, 570 925" stroke="#333333" stroke-width="1.5" stroke-dasharray="4,2" fill="none" marker-end="url(#arrowInclude)"/>
  <text x="480" y="952" font-family="Arial, sans-serif" font-size="10" font-style="italic" fill="#333333">«include»</text>
  
  <!-- Legend -->
  <rect x="1550" y="150" width="200" height="280" rx="4" fill="#f9f9f9" stroke="#333333" stroke-width="1"/>
  <text x="1650" y="180" font-family="Arial, sans-serif" font-size="13" font-weight="bold" fill="#333333" text-anchor="middle">Legend</text>
  
  <ellipse cx="1580" cy="210" rx="15" ry="8" fill="#dbeafe" stroke="#1e40af" stroke-width="1"/>
  <text x="1610" y="215" font-family="Arial, sans-serif" font-size="11" fill="#333333" text-anchor="start">Student Use Cases</text>
  
  <ellipse cx="1580" cy="245" rx="15" ry="8" fill="#fed7aa" stroke="#c2410c" stroke-width="1"/>
  <text x="1610" y="250" font-family="Arial, sans-serif" font-size="11" fill="#333333" text-anchor="start">Organizer Use Cases</text>
  
  <ellipse cx="1580" cy="280" rx="15" ry="8" fill="#fecaca" stroke="#991b1b" stroke-width="1"/>
  <text x="1610" y="285" font-family="Arial, sans-serif" font-size="11" fill="#333333" text-anchor="start">Admin Use Cases</text>
  
  <ellipse cx="1580" cy="315" rx="15" ry="8" fill="#d1fae5" stroke="#065f46" stroke-width="1"/>
  <text x="1610" y="320" font-family="Arial, sans-serif" font-size="11" fill="#333333" text-anchor="start">Social Features</text>
  
  <circle cx="1580" cy="350" r="8" fill="none" stroke="#333333" stroke-width="1.5"/>
  <line x1="1580" y1="358" x2="1580" y2="368" stroke="#333333" stroke-width="1.5"/>
  <text x="1600" y="365" font-family="Arial, sans-serif" font-size="11" fill="#333333" text-anchor="start">Actor</text>
  
  <line x1="1565" y1="385" x2="1595" y2="385" stroke="#333333" stroke-width="1.5" stroke-dasharray="4,2" marker-end="url(#arrowInclude)"/>
  <text x="1610" y="390" font-family="Arial, sans-serif" font-size="10" font-style="italic" fill="#333333" text-anchor="start">«include»</text>
  
  <line x1="1565" y1="405" x2="1595" y2="405" stroke="#333333" stroke-width="1.5" stroke-dasharray="8,4" marker-end="url(#arrowExtend)"/>
  <text x="1610" y="410" font-family="Arial, sans-serif" font-size="10" font-style="italic" fill="#333333" text-anchor="start">«extend»</text>
</svg>